<svg xmlns="http://www.w3.org/2000/svg" version="1.1" xmlns:xlink="http://www.w3.org/1999/xlink" width="200" height="200"><svg xmlns="http://www.w3.org/2000/svg" version="1.1" xmlns:xlink="http://www.w3.org/1999/xlink" viewBox="0 0 200 200"><rect width="200" height="200" fill="url('#gradient')"></rect><defs><linearGradient id="SvgjsLinearGradient1001" gradientTransform="rotate(123 0.5 0.5)"><stop offset="0%" stop-color="#8ee3eb"></stop><stop offset="100%" stop-color="#f1f8e7"></stop></linearGradient></defs><g><g fill="#48c5d0" transform="matrix(1.60619862042899,0,0,1.60619862042899,16.670531552104094,111.8882133099281)" stroke="#1b5f6f" stroke-width="0.6"><path d="M10.11-14.22L12.09-5.30L13.72-14.22L17.12-14.22L14.10 0L10.55 0L8.64-8.11L6.78 0L3.23 0L0.21-14.22L3.61-14.22L5.24-5.30L7.20-14.22L10.11-14.22ZM23.12 0.20L23.12 0.20Q20.68 0.20 19.18-1.25Q17.68-2.71 17.68-5.03L17.68-5.03L17.68-5.30Q17.68-6.92 18.28-8.16Q18.88-9.40 20.03-10.08Q21.18-10.76 22.76-10.76L22.76-10.76Q24.99-10.76 26.28-9.38Q27.57-8.00 27.57-5.53L27.57-5.53L27.57-4.25L21.03-4.25Q21.20-3.36 21.80-2.85Q22.39-2.34 23.34-2.34L23.34-2.34Q24.90-2.34 25.78-3.44L25.78-3.44L27.29-1.66Q26.67-0.81 25.54-0.31Q24.41 0.20 23.12 0.20ZM22.74-8.22L22.74-8.22Q21.30-8.22 21.03-6.31L21.03-6.31L24.35-6.31L24.35-6.56Q24.37-7.35 23.95-7.79Q23.53-8.22 22.74-8.22ZM38.70-5.36L38.70-5.20Q38.70-2.60 37.63-1.20Q36.55 0.20 34.60 0.20L34.60 0.20Q32.99 0.20 32.00-1.08L32.00-1.08L31.87 0L28.92 0L28.92-15L32.21-15L32.21-9.72Q33.13-10.76 34.58-10.76L34.58-10.76Q36.55-10.76 37.63-9.35Q38.70-7.93 38.70-5.36L38.70-5.36ZM35.40-5.40L35.40-5.40Q35.40-6.92 35.00-7.57Q34.59-8.22 33.75-8.22L33.75-8.22Q32.64-8.22 32.21-7.37L32.21-7.37L32.21-3.17Q32.63-2.33 33.77-2.33L33.77-2.33Q34.93-2.33 35.24-3.47L35.24-3.47Q35.40-4.02 35.40-5.40ZM48.16 0L45.14-5.29L43.73-3.75L43.73 0L40.30 0L40.30-14.22L43.73-14.22L43.73-7.95L44.92-9.76L47.99-14.22L52.23-14.22L47.42-7.93L52.23 0L48.16 0ZM59.39-10.64L59.34-7.59L58.25-7.67Q56.70-7.67 56.26-6.69L56.26-6.69L56.26 0L52.97 0L52.97-10.57L56.05-10.57L56.16-9.21Q56.99-10.76 58.48-10.76L58.48-10.76Q59.00-10.76 59.39-10.64L59.39-10.64ZM65.45 0.20L65.45 0.20Q63.02 0.20 61.51-1.25Q60.01-2.71 60.01-5.03L60.01-5.03L60.01-5.30Q60.01-6.92 60.61-8.16Q61.21-9.40 62.36-10.08Q63.52-10.76 65.10-10.76L65.10-10.76Q67.32-10.76 68.61-9.38Q69.90-8.00 69.90-5.53L69.90-5.53L69.90-4.25L63.36-4.25Q63.54-3.36 64.13-2.85Q64.73-2.34 65.67-2.34L65.67-2.34Q67.24-2.34 68.12-3.44L68.12-3.44L69.62-1.66Q69.00-0.81 67.88-0.31Q66.75 0.20 65.45 0.20ZM65.08-8.22L65.08-8.22Q63.63-8.22 63.36-6.31L63.36-6.31L66.68-6.31L66.68-6.56Q66.70-7.35 66.28-7.79Q65.86-8.22 65.08-8.22ZM80.47 0L77.18 0Q77.00-0.32 76.87-0.95L76.87-0.95Q75.96 0.20 74.33 0.20L74.33 0.20Q72.83 0.20 71.79-0.71Q70.74-1.61 70.74-2.98L70.74-2.98Q70.74-4.70 72.01-5.58Q73.28-6.46 75.70-6.46L75.70-6.46L76.72-6.46L76.72-7.01Q76.72-8.47 75.46-8.47L75.46-8.47Q74.29-8.47 74.29-7.31L74.29-7.31L71.00-7.31Q71.00-8.85 72.30-9.80Q73.60-10.76 75.63-10.76Q77.65-10.76 78.82-9.78Q79.99-8.79 80.02-7.07L80.02-7.07L80.02-2.39Q80.04-0.94 80.47-0.17L80.47-0.17L80.47 0ZM75.12-2.15L75.12-2.15Q75.73-2.15 76.14-2.41Q76.54-2.68 76.72-3.01L76.72-3.01L76.72-4.70L75.76-4.70Q74.04-4.70 74.04-3.15L74.04-3.15Q74.04-2.71 74.35-2.43Q74.65-2.15 75.12-2.15ZM82.38-13.19L85.67-13.19L85.67-10.57L87.41-10.57L87.41-8.28L85.67-8.28L85.67-3.45Q85.67-2.85 85.89-2.62Q86.10-2.38 86.74-2.38L86.74-2.38Q87.23-2.38 87.56-2.44L87.56-2.44L87.56-0.09Q86.67 0.20 85.70 0.20L85.70 0.20Q84.00 0.20 83.19-0.61Q82.38-1.41 82.38-3.04L82.38-3.04L82.38-8.28L81.04-8.28L81.04-10.57L82.38-10.57L82.38-13.19ZM92.18-10.57L92.18 0L88.88 0L88.88-10.57L92.18-10.57ZM88.68-13.29L88.68-13.29Q88.68-13.99 89.19-14.44Q89.70-14.89 90.51-14.89Q91.32-14.89 91.83-14.44Q92.33-13.99 92.33-13.29Q92.33-12.59 91.83-12.14Q91.32-11.69 90.51-11.69Q89.70-11.69 89.19-12.14Q88.68-12.59 88.68-13.29ZM96.78-10.57L98.42-3.92L100.09-10.57L103.55-10.57L100.11 0L96.75 0L93.30-10.57L96.78-10.57Z"></path></g></g></svg><style>@media (prefers-color-scheme: light) { :root { filter: none; } }
@media (prefers-color-scheme: dark) { :root { filter: none; } }
</style></svg>